<svg width="48" height="44" fill="none" xmlns="http://www.w3.org/2000/svg"><path d="M47.748 38.447h0V11.808h0a4.081 4.081 0 00-3.966-4.193h0a4.083 4.083 0 00-.28.002h-.01v0H33.7V5.546h0a4.257 4.257 0 00-4.144-4.366l18.192 37.267zm0 0v.007-.007zM18.556 1.178h0a4.257 4.257 0 00-4.258 4.256l4.258-4.256zm0 0h10.887c.038 0 .075 0 .113.002l-11-.002zM14.3 5.552h0v2.065H4.498h0a4.082 4.082 0 00-4.246 3.91L14.3 5.552zm0 0v-.007m0 .007v-.007m0 0a4.076 4.076 0 01-.002-.111l.001.111zM.251 11.815h0v26.639h0a4.257 4.257 0 004.144 4.366s0 0 0 0l-.006.25L.252 11.815zm0 0v-.007m0 .007v-.007m0 0a4.084 4.084 0 01.001-.28l-.001.28zm18.17-8.785h0l.135-.003m-.134.003l11.02.247v-.25h0s0 0 0 0H18.557m-.134.003A2.416 2.416 0 0016.14 5.56l2.282-2.536zm.134-.003h0v.25-.25s0 0 0 0zm25.068 37.957h0a2.38 2.38 0 01-.134.003m.134-.003l-.134-.247m.134.247a2.416 2.416 0 002.282-2.536v-8.123l-.387.252a3.383 3.383 0 01-2.016.546h0-12.145v3.624a1.272 1.272 0 01-1.163 1.058H17.804a1.272 1.272 0 01-1.163-1.058v-3.625H4.509v0h-.013a3.38 3.38 0 01-2.016-.544l-.387-.253v8.123a2.39 2.39 0 00-.003.127m41.535 2.409L4.509 40.73m38.982.25v-.25m0 .25h0v-.25m0 .25H4.509m38.982-.25H4.51m0 .25v-.25m0 .25h0v-.25m0 .25a2.416 2.416 0 01-2.42-2.412m0 0s0 0 0 0h.25-.25s0 0 0 0zm41.536-9.298h0a2.38 2.38 0 01-.134.004m.134-.004l-.134-.246m.134.246a2.416 2.416 0 002.282-2.536m-2.282 2.536l2.282-2.536m-2.416 2.54v-.25m0 .25h0v-.25m0 .25H31.359v-2.767c0-.209-.12-.388-.343-.527a1.597 1.597 0 00-.812-.218H17.796c-.282 0-.586.078-.812.218-.224.14-.343.318-.343.527v2.767H4.509m38.982-.25H31.61v-2.517c0-.644-.76-.995-1.405-.995H17.796c-.644 0-1.405.351-1.405.995v2.517H4.509m0 .25v-.25m0 .25h0v-.25m0 .25a2.416 2.416 0 01-2.42-2.412m2.42 2.162a2.166 2.166 0 01-2.17-2.163m0 0h-.25s0 0 0 0m.25 0c0-.04.002-.08.004-.12m-.003.12l.003-.12m-.003.12l-.25.001s0 0 0 0m.25 0h-.25m.253-.12V11.814 26.74zm-.25-14.92a2.24 2.24 0 012.095-2.367h0a2.3 2.3 0 01.332.003h38.96a2.24 2.24 0 012.422 2.03m-43.809.335l43.564-.008m-43.564.008v14.912-14.912zm43.809-.335l-.25.023.25-.023s0 0 0 0zm0 0c.01.111.012.223.005.335m0 0v-.008h-.25m.25.008v14.911m0-14.911v.008l-.25-.016m0 0l.25 14.92m-27.425 6.971v.25h11.036v-6.353H18.482v6.103z" fill="#fff" stroke="#fff" stroke-width=".5"/></svg>