<svg width="188" height="419" fill="none" xmlns="http://www.w3.org/2000/svg"><path fill-rule="evenodd" clip-rule="evenodd" d="M-79.623 259.257c-6.76-12.662-19.6-20.253-26.495-32.843-8.504-15.531-22.592-31.625-18.186-48.751 4.393-17.078 26.051-22.136 39.388-33.663 13.393-11.574 23.589-25.841 39.177-34.235 21.642-11.654 47.567-36.926 68.29-23.633 22.046 14.141 5.968 50.612 13.057 75.812 4.447 15.805 16.793 27.694 20.56 43.674 4.647 19.72 11.301 40.642 3.737 59.415-8.02 19.901-26.845 32.938-45.336 43.817-20.138 11.848-44.607 32.187-65.313 21.285-23.047-12.135-16.614-47.904-28.879-70.878z" fill="#FFECF2"/><path clip-rule="evenodd" d="M-87.397 271.449c-7.823-14.652-22.68-23.435-30.658-38.003-9.84-17.97-26.141-36.593-21.043-56.41 5.084-19.761 30.144-25.613 45.577-38.95 15.496-13.393 27.294-29.902 45.33-39.615 25.043-13.484 55.04-42.726 79.019-27.345 25.509 16.363 6.905 58.564 15.108 87.722 5.146 18.288 19.431 32.045 23.79 50.535 5.377 22.818 13.077 47.027 4.324 68.75-9.279 23.026-31.062 38.111-52.459 50.7-23.3 13.709-51.613 37.244-75.573 24.628-26.668-14.04-19.223-55.429-33.415-82.012z" stroke="#FFD0E0" stroke-width="2"/></svg>