<svg width="39" height="43" fill="none" xmlns="http://www.w3.org/2000/svg"><path d="M37.672 10.332L20.132.17a1.26 1.26 0 00-1.263 0L1.32 10.332a1.263 1.263 0 00-.628 1.089v20.157c0 .452.246.875.64 1.097L18.87 42.83c.189.11.413.17.631.17.227 0 .45-.064.631-.17L37.66 32.675l.009-.005c.406-.293.625-.54.631-1.077V11.428l.001-.007c0-.448-.242-.865-.628-1.089zM18.24 39.555L4.48 31.584 15.09 25.5a1.26 1.26 0 10-1.253-2.185L3.212 29.404V13.598l15.029 8.63v17.327zm1.26-19.508l-15.02-8.63L19.5 2.715l15.02 8.702-15.02 8.63zm16.29 9.357l-10.626-6.088a1.26 1.26 0 10-1.253 2.185l10.607 6.083-13.759 7.971V22.23l15.03-8.631v15.806z" fill="#F78CB6"/></svg>