<svg width="1440" height="449" fill="none" xmlns="http://www.w3.org/2000/svg"><path d="M461.485 52.367C274.277 3.442 46.325 302.57-36.5 457.5L1459 456v-37.5c-92.16-120.275-209.21-252.824-256.22-287.139-114.48-102.336-245.034 11.721-296.003 81.542-57.444 80.726-124.496 46.886-150.842 19.876C629.064 111.281 506.772 61.88 461.485 52.367z" fill="#FFF2F6"/><path d="M483.038 6.918C276.602-47.032 42.331 281.16-49 452h1586l21.5-61.5c-101.62-132.625-206.2-258.637-258.04-296.476-126.23-112.845-270.19 12.925-326.398 89.915-63.343 89.016-137.282 51.702-166.333 21.917C667.827 71.882 532.976 17.408 483.038 6.918z" stroke="#FEDDE8"/></svg>