<svg width="154" height="344" fill="none" xmlns="http://www.w3.org/2000/svg"><path clip-rule="evenodd" d="M-80.327 236.744c-7.86-13.449-22.204-20.817-30.209-34.175-9.874-16.478-25.887-33.138-21.668-52.396 4.207-19.203 27.764-26.496 41.972-40.275 14.267-13.837 24.933-30.395 41.72-40.893 23.304-14.574 50.819-44.523 74.005-31.48 24.666 13.875 8.343 55.414 17.01 82.679 5.437 17.101 19.392 29.255 24.089 46.602 5.796 21.409 13.834 43.986 6.212 65.311-8.08 22.606-28.25 38.486-48.13 51.958-21.648 14.67-47.742 39.058-70.826 28.653-25.692-11.581-19.914-51.584-34.175-75.984z" stroke="#FFD0E0" stroke-width="2"/></svg>