<svg width="44" height="44" fill="none" xmlns="http://www.w3.org/2000/svg"><path d="M38.44 18.147l.343-.213 4.477-2.786.132.212-.132-.212a1.039 1.039 0 00.003-1.763l.132-.212-.133.212L22.553.41l.132-.212-.132.212a1.04 1.04 0 00-1.104 0l-.133-.212.133.212L.738 13.385a1.04 1.04 0 00-.488.882l38.19 3.88zm0 0l.344.212m-.343-.212l.343.212m0 0l4.472 2.756a1.04 1.04 0 01.004 1.767l.132.212-.132-.212-4.477 2.786-.342.214.343.211 4.472 2.757a1.04 1.04 0 01.007 1.765L22.552 43.59l.132.212-.132-.211a1.038 1.038 0 01-1.104 0L.738 30.614l-.133.212.132-.212a1.039 1.039 0 01.001-1.762l4.448-2.78.34-.212-.34-.212L.74 22.882s0 0 0 0a1.04 1.04 0 01-.002-1.763l4.448-2.78.34-.212-.34-.212L.74 15.148h0m38.044 3.211L.74 15.148m0 0a1.039 1.039 0 01-.49-.88l.49.88zm2.85-1.098l-.34.213.34.211L21.869 25.85l.132.082.132-.082L40.41 14.474l.34-.211-.34-.213L22.134 2.6 22 2.515l-.133.084L3.59 14.05zm36.811 15.905l.341-.213-.342-.211-3.798-2.342-.132-.08-.131.08-13.79 8.584a1.038 1.038 0 01-1.098 0L7.623 27.166l-.132-.082-.133.082-3.771 2.358-.34.211.34.213 18.28 11.454.133.083.133-.083L40.4 29.955zm-18.533 3.63l.132.082.132-.082 18.263-11.367.343-.214-.344-.212-3.792-2.337-.132-.081-.131.082-13.79 8.582a1.038 1.038 0 01-1.098 0L7.623 19.432l-.132-.082-.133.082-3.766 2.354-.34.212.34.212 18.276 11.375z" fill="#F78CB6" stroke="#F78CB6" stroke-width=".5"/></svg>