<svg width="126" height="300" fill="none" xmlns="http://www.w3.org/2000/svg"><path fill-rule="evenodd" clip-rule="evenodd" d="M-78.612 205.8c-7.195-11.938-20.03-18.651-27.35-30.512-9.031-14.631-23.505-29.528-20.096-46.358 3.399-16.783 24.146-22.781 36.498-34.631 12.403-11.9 21.57-26.25 36.264-35.177C-32.898 46.73-9.032 20.914 11.734 32.76c22.092 12.6 8.341 48.78 16.488 72.859 5.11 15.102 17.682 26.008 22.14 41.314 5.502 18.89 13.011 38.843 6.622 57.429-6.772 19.703-24.37 33.295-41.753 44.779-18.93 12.505-41.632 33.463-62.262 23.936-22.962-10.605-18.528-45.616-31.581-67.276z" fill="#FFECF2"/></svg>